<?xml version="1.0" encoding="UTF-8" standalone="no"?>
<!-- Created with Inkscape (http://www.inkscape.org/) -->

<svg
   xmlns:dc="http://purl.org/dc/elements/1.1/"
   xmlns:cc="http://creativecommons.org/ns#"
   xmlns:rdf="http://www.w3.org/1999/02/22-rdf-syntax-ns#"
   xmlns:svg="http://www.w3.org/2000/svg"
   xmlns="http://www.w3.org/2000/svg"
   xmlns:sodipodi="http://sodipodi.sourceforge.net/DTD/sodipodi-0.dtd"
   xmlns:inkscape="http://www.inkscape.org/namespaces/inkscape"
   width="533.33331"
   height="533.33331"
   viewBox="0 0 500 500"
   id="svg2"
   version="1.1"
   inkscape:version="0.92.1 r15371"
   sodipodi:docname="bungei-i.svg"
   inkscape:export-filename="C:\Users\Takumiya_Cho\Desktop\KoSho\TypeS-S-600.png"
   inkscape:export-xdpi="90"
   inkscape:export-ydpi="90">
  <defs
     id="defs4">
    <filter
       style="color-interpolation-filters:sRGB"
       inkscape:label="Drop Shadow"
       id="filter4771">
      <feFlood
         flood-opacity="1"
         flood-color="rgb(0,0,0)"
         result="flood"
         id="feFlood4773" />
      <feComposite
         in="flood"
         in2="SourceGraphic"
         operator="in"
         result="composite1"
         id="feComposite4775" />
      <feGaussianBlur
         in="composite1"
         stdDeviation="5"
         result="blur"
         id="feGaussianBlur4777" />
      <feOffset
         dx="0"
         dy="0"
         result="offset"
         id="feOffset4779" />
      <feComposite
         in="SourceGraphic"
         in2="offset"
         operator="over"
         result="composite2"
         id="feComposite4781" />
    </filter>
    <filter
       style="color-interpolation-filters:sRGB"
       inkscape:label="Drop Shadow"
       id="filter4758">
      <feFlood
         flood-opacity="1"
         flood-color="rgb(0,0,0)"
         result="flood"
         id="feFlood4760" />
      <feComposite
         in="flood"
         in2="SourceGraphic"
         operator="in"
         result="composite1"
         id="feComposite4762" />
      <feGaussianBlur
         in="composite1"
         stdDeviation="5"
         result="blur"
         id="feGaussianBlur4764" />
      <feOffset
         dx="0"
         dy="0"
         result="offset"
         id="feOffset4766" />
      <feComposite
         in="SourceGraphic"
         in2="offset"
         operator="over"
         result="composite2"
         id="feComposite4768" />
    </filter>
    <filter
       style="color-interpolation-filters:sRGB"
       inkscape:label="Drop Shadow"
       id="filter4746">
      <feFlood
         flood-opacity="1"
         flood-color="rgb(0,0,0)"
         result="flood"
         id="feFlood4748" />
      <feComposite
         in="flood"
         in2="SourceGraphic"
         operator="in"
         result="composite1"
         id="feComposite4750" />
      <feGaussianBlur
         in="composite1"
         stdDeviation="5"
         result="blur"
         id="feGaussianBlur4752" />
      <feOffset
         dx="0"
         dy="0"
         result="offset"
         id="feOffset4754" />
      <feComposite
         in="SourceGraphic"
         in2="offset"
         operator="over"
         result="composite2"
         id="feComposite4756" />
    </filter>
    <filter
       style="color-interpolation-filters:sRGB"
       inkscape:label="Drop Shadow"
       id="filter4734">
      <feFlood
         flood-opacity="1"
         flood-color="rgb(0,0,0)"
         result="flood"
         id="feFlood4736" />
      <feComposite
         in="flood"
         in2="SourceGraphic"
         operator="in"
         result="composite1"
         id="feComposite4738" />
      <feGaussianBlur
         in="composite1"
         stdDeviation="5"
         result="blur"
         id="feGaussianBlur4740" />
      <feOffset
         dx="0"
         dy="0"
         result="offset"
         id="feOffset4742" />
      <feComposite
         in="SourceGraphic"
         in2="offset"
         operator="over"
         result="composite2"
         id="feComposite4744" />
    </filter>
    <filter
       style="color-interpolation-filters:sRGB"
       inkscape:label="Drop Shadow"
       id="filter4207">
      <feFlood
         flood-opacity="1"
         flood-color="rgb(0,0,0)"
         result="flood"
         id="feFlood4209" />
      <feComposite
         in="flood"
         in2="SourceGraphic"
         operator="in"
         result="composite1"
         id="feComposite4211" />
      <feGaussianBlur
         in="composite1"
         stdDeviation="5"
         result="blur"
         id="feGaussianBlur4213" />
      <feOffset
         dx="0"
         dy="0"
         result="offset"
         id="feOffset4215" />
      <feComposite
         in="SourceGraphic"
         in2="offset"
         operator="over"
         result="composite2"
         id="feComposite4217" />
    </filter>
  </defs>
  <sodipodi:namedview
     id="base"
     pagecolor="#ffffff"
     bordercolor="#666666"
     borderopacity="1.0"
     inkscape:pageopacity="0"
     inkscape:pageshadow="2"
     inkscape:zoom="0.93809501"
     inkscape:cx="697.00157"
     inkscape:cy="291.60528"
     inkscape:document-units="px"
     inkscape:current-layer="layer1"
     showgrid="true"
     units="px"
     inkscape:window-width="1920"
     inkscape:window-height="965"
     inkscape:window-x="-8"
     inkscape:window-y="-8"
     inkscape:window-maximized="1"
     inkscape:snap-center="false"
     inkscape:snap-page="true"
     inkscape:snap-bbox="true"
     inkscape:snap-grids="false"
     inkscape:snap-to-guides="false">
    <inkscape:grid
       type="xygrid"
       id="grid4169"
       originx="0"
       originy="0"
       spacingx="250"
       spacingy="250.1" />
  </sodipodi:namedview>
  <metadata
     id="metadata7">
    <rdf:RDF>
      <cc:Work
         rdf:about="">
        <dc:format>image/svg+xml</dc:format>
        <dc:type
           rdf:resource="http://purl.org/dc/dcmitype/StillImage" />
        <dc:title />
        <cc:license
           rdf:resource="http://creativecommons.org/licenses/by/3.0/" />
      </cc:Work>
      <cc:License
         rdf:about="http://creativecommons.org/licenses/by/3.0/">
        <cc:permits
           rdf:resource="http://creativecommons.org/ns#Reproduction" />
        <cc:permits
           rdf:resource="http://creativecommons.org/ns#Distribution" />
        <cc:requires
           rdf:resource="http://creativecommons.org/ns#Notice" />
        <cc:requires
           rdf:resource="http://creativecommons.org/ns#Attribution" />
        <cc:permits
           rdf:resource="http://creativecommons.org/ns#DerivativeWorks" />
      </cc:License>
    </rdf:RDF>
  </metadata>
  <g
     inkscape:label="レイヤー 1"
     inkscape:groupmode="layer"
     id="layer1"
     transform="translate(0,-552.36216)">
    <path
       style="opacity:1;fill:#000000;fill-opacity:1;fill-rule:evenodd;stroke:none;stroke-width:2.64566922;stroke-linecap:butt;stroke-linejoin:miter;stroke-miterlimit:4;stroke-dasharray:2.64566923, 2.64566923000000020;stroke-dashoffset:0;stroke-opacity:1;paint-order:stroke markers fill"
       d="M 80 0 C 35.680002 0 0 35.680002 0 80 L 0 181.63672 C 0.0092759241 181.63686 0.016101823 181.63658 0.025390625 181.63672 C 11.098907 181.80792 12.330237 181.45092 14.791016 177.34961 C 17.340319 173.10073 17.193307 172.62685 11.867188 167.95312 C 8.7823544 165.24616 5.0924412 160.61517 3.6679688 157.66211 C 1.5172562 153.20358 1.4828394 151.94851 3.4609375 150.26758 C 5.2392276 148.75644 8.7921807 148.84811 17.476562 150.62891 L 29.109375 153.01562 L 33.136719 148.62695 C 36.521801 144.93823 36.769446 143.88254 34.697266 142.00195 C 33.341488 140.77151 30.129675 136.14053 27.558594 131.71094 C 23.829746 125.28671 23.332355 123.19894 25.101562 121.39062 C 26.321466 120.1438 28.326211 119.13517 29.556641 119.15234 C 30.787082 119.16874 35.864083 120.99419 40.837891 123.20898 L 49.880859 127.23633 L 54.310547 122.76172 L 58.740234 118.28711 L 54.042969 107.54883 C 51.458688 101.64272 49.824395 95.804661 50.412109 94.574219 C 50.999855 93.343797 52.48831 92.3258 53.71875 92.310547 C 54.949192 92.295784 60.586074 95.11423 66.246094 98.574219 L 76.537109 104.86523 L 81.011719 100.39062 C 83.773084 97.629265 85.104656 94.718116 84.490234 92.785156 C 83.942693 91.062532 82.733669 86.228388 81.804688 82.044922 C 80.566617 76.469498 80.713718 73.714049 82.353516 71.724609 C 84.31567 69.344119 85.361453 69.61785 90.855469 73.953125 C 94.300705 76.671728 98.527387 80.309867 100.25 82.037109 C 101.97261 83.764341 103.98635 85.206208 104.72461 85.240234 C 105.46288 85.274272 108.08015 83.743011 110.54102 81.837891 L 115.01562 78.373047 L 113.5625 67.009766 C 112.44712 58.292646 112.65519 55.340735 114.45703 54.332031 C 115.7489 53.608853 117.20901 52.97113 117.70117 52.914062 C 118.19337 52.857071 122.62318 56.972535 127.54492 62.058594 L 136.49219 71.304688 L 141.86133 68.271484 C 146.81867 65.470962 147.26612 64.391079 147.69336 54.179688 C 147.96718 47.636167 149.06435 42.632973 150.37891 41.929688 C 151.60089 41.275937 154.37907 42.082591 156.55273 43.720703 C 158.7264 45.358836 162.25052 49.920003 164.38477 53.857422 C 167.80375 60.165091 168.87857 60.909552 173.41797 60.121094 C 176.82166 59.529915 179.12792 57.7079 180.21484 54.751953 C 181.11974 52.291068 182.32401 47.257745 182.89062 43.566406 C 183.45843 39.867729 185.3267 36.075471 187.05273 35.119141 C 188.77535 34.164719 190.5879 33.338456 191.08008 33.283203 C 191.57226 33.227939 193.72376 37.029466 195.86133 41.730469 C 197.99891 46.431482 200.2138 51.687543 200.7832 53.410156 C 201.40185 55.281762 203.61923 56.542969 206.29297 56.542969 C 208.75384 56.542969 211.97464 55.333955 213.45117 53.857422 C 214.92767 52.380889 216.14008 50.568339 216.14648 49.830078 C 216.15236 49.091806 217.56254 45.038991 219.2793 40.822266 C 221.67205 34.945146 223.34082 33.168657 226.42773 33.214844 C 229.57181 33.262001 230.82056 34.74619 232.125 39.986328 C 233.04387 43.677656 234.04977 48.649406 234.36133 51.033203 C 234.74376 53.959144 236.52695 55.848799 239.84961 56.849609 C 243.16169 57.847252 245.53305 57.599233 247.09961 56.09375 C 248.37992 54.863307 251.41552 50.234266 253.8457 45.804688 C 257.2434 39.611567 259.28938 37.75 262.70312 37.75 C 266.88007 37.75 267.19711 38.434468 268.03906 49.339844 C 268.82018 59.457102 269.50264 61.219956 273.4082 63.201172 C 277.64284 65.349342 278.36077 64.928431 286.83008 55.341797 C 293.46598 47.830416 296.58759 45.519442 298.91016 46.402344 C 301.52594 47.396765 301.96941 49.549742 301.5957 59.46875 C 301.19447 70.119022 301.56452 71.59736 305.17578 73.787109 C 308.05685 75.534075 310.22033 75.719933 312.78125 74.439453 C 314.74995 73.455112 316.36133 71.843738 316.36133 70.859375 C 316.36133 69.875034 319.38094 66.732771 323.07227 63.875 C 328.99264 59.291544 330.15317 58.974136 332.91602 61.189453 C 335.82709 63.523618 335.8582 64.490036 333.36133 74.886719 C 330.86859 85.2661 330.90069 86.303288 333.80859 89.263672 C 335.53222 91.01837 337.54692 92.426638 338.28516 92.394531 C 339.02342 92.362446 344.25795 89.183101 349.91797 85.328125 C 357.69652 80.030291 360.97443 78.719496 363.3418 79.958984 C 365.50268 81.090472 366.14386 82.846483 365.41211 85.625 C 364.82881 87.839784 362.82841 92.873139 360.96484 96.810547 C 359.10127 100.74795 357.56411 104.57424 357.55078 105.3125 C 357.53677 106.05076 359.13685 108.06449 361.10742 109.78711 L 364.68945 112.91797 L 374.97852 107.95312 C 380.63669 105.22211 386.07031 102.97091 387.05469 102.95117 C 388.03902 102.93137 389.83648 103.95816 391.04883 105.23242 C 392.80908 107.08258 391.98579 109.71192 386.96289 118.28711 C 383.50341 124.19322 380.70021 130.03323 380.73242 131.26367 C 380.76475 132.4941 382.60359 134.37838 384.81836 135.45117 C 387.63977 136.81779 390.18348 136.84637 393.31836 135.54492 C 395.77924 134.52328 400.81452 132.84018 404.50586 131.80469 C 410.47335 130.13063 411.41454 130.31734 413.00586 133.5 C 414.36325 136.21479 413.97466 138.26911 411.39258 142.00195 C 409.5201 144.70893 405.87344 148.93754 403.29102 151.39844 C 400.70857 153.85932 398.6173 156.47658 398.64258 157.21484 C 398.66788 157.95312 400.29888 160.16801 402.26758 162.13672 C 405.28618 165.15535 406.7588 165.43452 411.66406 163.92383 C 414.8632 162.93859 420.09771 162.13387 423.29688 162.13477 C 427.32269 162.13591 429.66557 163.23743 430.9043 165.71484 C 432.43226 168.77082 431.38573 170.40846 423.75 176.90234 C 416.5574 183.01937 414.89213 185.47342 415.24805 189.43555 C 415.49147 192.14526 416.09378 194.39058 416.58594 194.42578 C 417.07812 194.46086 422.85045 194.65894 429.41406 194.86719 C 435.9777 195.07542 442.01889 195.85952 442.83789 196.60938 C 443.6569 197.35921 443.32028 199.97648 442.08984 202.42578 C 440.85938 204.87507 436.21366 208.69143 431.76758 210.90625 C 425.44986 214.05341 423.67381 215.91134 423.63477 219.4082 C 423.60743 221.86907 424.62809 224.81505 425.90234 225.95508 C 427.17662 227.09512 432.64857 228.54406 438.0625 229.17578 C 443.47644 229.80746 448.50979 230.68781 449.24805 231.13086 C 449.98628 231.5739 450.61343 233.34575 450.64062 235.06836 C 450.66775 236.79097 448.8552 239.11005 446.61328 240.22266 C 444.37134 241.33524 439.08946 243.75135 434.875 245.5918 C 428.48734 248.38128 427.22064 249.75655 427.26758 253.85938 C 427.30645 257.25967 428.5695 259.28262 431.35156 260.40039 C 433.56636 261.29023 439.20324 263.302 443.87891 264.87305 C 449.70886 266.83193 452.37377 268.71542 452.36523 270.86328 C 452.35402 273.15456 449.35157 274.88104 441.17969 277.29688 C 435.03589 279.11314 429.20312 280.80795 428.21875 281.0625 C 427.23442 281.31701 426.02732 283.94466 425.53516 286.90234 C 424.69412 291.95642 425.32015 292.64485 435.96484 298.34961 C 444.80528 303.08739 447.16388 305.20337 446.70508 307.98828 C 446.32603 310.28902 444.2103 311.96085 440.74805 312.69727 C 437.795 313.32543 431.95497 313.93429 427.77148 314.05078 C 421.42721 314.22738 419.86779 315.00635 418.375 318.73828 C 417.39066 321.19917 416.54892 323.41408 416.50391 323.66016 C 416.45881 323.90627 420.88863 327.5294 426.34766 331.71289 C 431.8067 335.8964 436.27344 340.52737 436.27344 342.00391 C 436.27344 343.48044 434.66206 345.49416 432.69336 346.47852 C 430.54809 347.55116 424.86508 347.73025 418.50977 346.92578 L 407.90625 345.58398 L 405.53516 350.52344 C 403.33559 355.10583 403.55649 355.88403 408.58789 361.26172 C 411.57141 364.45057 415.40538 368.67192 417.10938 370.64062 C 418.81336 372.60935 419.79503 375.62896 419.29102 377.35156 C 418.70798 379.34429 416.58454 380.49256 413.45312 380.50781 C 410.74616 380.52072 404.7069 379.31171 400.03125 377.82227 L 391.5293 375.11328 L 388.05273 380.93164 L 384.57422 386.74805 L 390.28906 393.70117 C 393.43221 397.52552 396.60745 400.94748 397.3457 401.30664 C 398.08396 401.66579 398.70158 403.36919 398.71875 405.0918 C 398.73513 406.81444 397.72731 409.18725 396.48047 410.36523 C 394.71059 412.03735 391.46641 411.51698 381.68555 407.99023 L 369.1582 403.47266 L 365.82227 406.74414 L 362.48438 410.01367 L 368.05469 421.64648 L 373.625 433.28125 L 370.49609 436.4707 C 368.77573 438.2254 366.96483 439.64651 366.47266 439.62891 C 365.98047 439.61158 360.74596 436.75499 354.83984 433.2793 C 344.83461 427.39141 343.8262 427.14401 340.07422 429.67188 C 337.85943 431.16406 336.02812 432.99032 336.00391 433.72852 C 335.97974 434.46682 337.07803 437.8887 338.44531 441.33398 C 339.81257 444.77916 341.39885 450.0137 341.9707 452.9668 C 342.79743 457.23617 342.20629 458.82106 339.08203 460.70312 C 335.50539 462.85782 334.22915 462.33628 324.86133 454.88672 L 314.57031 446.70312 L 310.09766 449.38867 C 307.63678 450.86518 305.93305 453.08019 306.3125 454.31055 C 306.69196 455.54102 307.49667 461.17791 308.10156 466.83789 C 309.10999 476.2733 308.86793 477.29741 305.17578 479.15234 C 301.67112 480.9132 300.60601 480.50625 296.97266 476.01953 C 294.67656 473.18422 290.85223 468.65024 288.47266 465.94336 C 284.64198 461.58562 283.53122 461.22599 278.77734 462.81055 L 273.4082 464.60156 L 272.95898 477.38867 C 272.62186 487.02387 271.77369 490.66459 269.51367 492.1543 C 267.09947 493.74587 265.80955 493.25753 262.9082 489.65625 C 260.92554 487.19545 257.846 482.1363 256.06445 478.41406 C 254.28294 474.69182 251.61715 471.68478 250.14062 471.72852 C 248.6641 471.77289 245.84566 472.22405 243.87695 472.73242 C 241.33576 473.38864 239.89251 475.84728 238.90234 481.20898 C 238.13525 485.3629 236.72699 491.37909 235.77148 494.57812 C 234.68742 498.20757 232.85472 500.422 230.90039 500.4668 C 228.83363 500.51373 226.39947 497.46947 223.74219 491.51758 C 221.5274 486.55651 219.71484 481.6933 219.71484 480.70898 C 219.71484 479.72466 218.50776 478.5156 217.03125 478.02344 C 215.55473 477.53128 212.33197 477.12891 209.87109 477.12891 C 207.4102 477.12891 205.02281 478.13483 204.56445 479.36523 C 204.10611 480.59563 202.09238 486.23448 200.08984 491.89453 C 197.56339 499.03533 195.48972 502.20679 193.31641 502.25586 C 191.55852 502.29575 189.23438 500.13644 188.01953 497.33398 C 186.82908 494.58806 185.30499 489.12109 184.63086 485.18359 C 183.9567 481.24621 182.51425 477.43218 181.42578 476.70898 C 180.33735 475.98578 177.43355 475.35641 174.97266 475.31055 C 171.5131 475.2458 169.77697 476.76129 167.31641 481.99414 C 165.56611 485.71649 162.34338 491.02724 160.15625 493.79492 C 157.52811 497.12079 155.11877 498.48485 153.04883 497.82031 C 150.70492 497.06789 149.845 494.67627 149.63672 488.31445 L 149.35938 479.8125 L 149.63672 475.78711 C 149.85739 472.59447 148.52607 471.33662 143.20508 469.71875 C 137.31447 467.92774 136.27398 468.07518 134.70312 470.91992 C 133.71878 472.70263 130.09563 477.2813 126.65039 481.0957 C 123.20516 484.9101 118.77534 488.00111 116.80664 487.96484 C 113.42914 487.9018 113.30181 487.1392 114.56836 474.45898 L 115.91016 461.02148 L 110.54102 458.33594 L 105.17188 455.65234 L 96.224609 464.60156 C 91.302872 469.52334 86.066377 473.54883 84.589844 473.54883 C 83.113321 473.54883 81.384911 472.14061 80.748047 470.41797 C 80.111194 468.69533 80.915893 462.65423 82.537109 456.99414 C 84.158293 451.33416 85.517387 446.09962 85.556641 445.36133 C 85.595691 444.62313 83.179628 443.01174 80.1875 441.78125 C 75.315319 439.77773 74.13901 439.9887 68.929688 443.80664 C 65.730548 446.15127 60.697187 449.3373 57.744141 450.88672 C 53.557856 453.08317 51.908799 453.22971 50.257812 451.54688 C 48.626305 449.88381 48.755932 447.74433 50.822266 442.22852 C 52.297307 438.29116 54.764561 433.05654 56.304688 430.5957 C 58.935246 426.39263 58.847064 425.83384 54.845703 421.36328 L 50.585938 416.60352 L 40.742188 421.9082 C 35.328242 424.82605 29.296529 426.96834 27.337891 426.66797 C 25.379228 426.36769 23.520846 424.914 23.208984 423.4375 C 22.897123 421.96089 25.56382 416.32217 29.134766 410.9082 C 34.617241 402.59624 35.329689 400.43943 33.710938 397.03906 C 32.264654 394.00098 30.584278 393.16969 26.871094 393.6582 C 24.164118 394.01433 18.135789 395.42453 13.472656 396.79102 C 6.0755019 398.9587 4.6357122 398.93404 2.1894531 396.5918 C -0.34158996 394.16836 0.12399748 392.94845 6.9804688 384.0625 C 11.157918 378.64856 15.228054 374.0176 16.025391 373.77148 C 16.822719 373.5254 16.468713 371.28809 15.238281 368.79883 C 13.880658 366.05231 11.594066 364.35171 9.421875 364.47461 C 7.9720354 364.55665 4.1104313 364.94782 0 365.39453 L 0 453.33398 C -7.4014868e-016 456.79648 0.21797182 460.20469 0.640625 463.54883 C 0.64070586 463.54947 0.64054413 463.55014 0.640625 463.55078 C 1.4014611 469.56954 2.8268575 475.37614 4.8398438 480.89453 C 4.8400545 480.89511 4.839633 480.89591 4.8398438 480.89648 C 5.7344455 483.34877 6.7448018 485.74415 7.8652344 488.07617 C 8.9859278 490.40874 10.217353 492.6779 11.550781 494.87695 C 13.550923 498.17553 15.782949 501.31631 18.224609 504.27734 C 18.224935 504.27774 18.224284 504.2789 18.224609 504.2793 C 27.177247 515.13588 38.947128 523.57316 52.4375 528.49414 C 56.730041 530.05996 61.197334 531.2696 65.802734 532.08789 C 67.118563 532.32169 68.445548 532.5243 69.783203 532.69336 C 70.452031 532.77789 71.1229 532.85384 71.796875 532.92188 C 71.79752 532.92194 71.798183 532.92181 71.798828 532.92188 C 73.146144 533.05785 74.504446 533.16164 75.871094 533.23047 C 77.238394 533.29933 78.615 533.33398 80 533.33398 L 453.33398 533.33398 C 454.31441 533.33398 455.28812 533.31004 456.25977 533.27539 C 456.47204 533.26783 456.68464 533.26115 456.89648 533.25195 C 457.84593 533.21069 458.79207 533.15583 459.73242 533.08203 C 459.90677 533.06836 460.07988 533.04994 460.25391 533.03516 C 461.08433 532.96458 461.91156 532.88072 462.73438 532.78516 C 462.91725 532.76393 463.10072 532.74511 463.2832 532.72266 C 464.19277 532.61071 465.09646 532.48186 465.99609 532.33984 C 466.22439 532.30383 466.45205 532.26644 466.67969 532.22852 C 467.54854 532.08366 468.41449 531.92832 469.27344 531.75586 C 469.34032 531.74244 469.40779 531.73038 469.47461 531.7168 C 469.5212 531.70732 469.56672 531.69511 469.61328 531.68555 C 470.76115 531.45004 471.89828 531.18616 473.02734 530.90234 C 473.39194 530.81062 473.75269 530.70802 474.11523 530.61133 C 474.91845 530.39729 475.71686 530.17363 476.50977 529.93555 C 476.93812 529.80683 477.36576 529.67667 477.79102 529.54102 C 478.54348 529.30117 479.28878 529.04641 480.03125 528.78516 C 480.42661 528.64594 480.82436 528.5124 481.2168 528.36719 C 482.18825 528.00801 483.15048 527.62968 484.10352 527.23438 C 484.58792 527.03328 485.06544 526.81965 485.54492 526.60938 C 486.22201 526.31269 486.89743 526.01393 487.56445 525.69922 C 488.07036 525.46033 488.57036 525.21005 489.07031 524.96094 C 489.61638 524.68907 490.16041 524.4128 490.69922 524.12891 C 491.2097 523.85971 491.7169 523.58648 492.2207 523.30664 C 492.73507 523.02118 493.24273 522.72608 493.75 522.42969 C 494.25709 522.13313 494.76775 521.84054 495.26758 521.5332 C 495.69479 521.27074 496.1114 520.99288 496.5332 520.72266 C 497.59742 520.0403 498.64518 519.33617 499.67383 518.60547 C 499.99634 518.37657 500.3217 518.15151 500.64062 517.91797 C 501.23091 517.48533 501.81095 517.04014 502.38867 516.5918 C 502.69003 516.35813 502.99118 516.12458 503.28906 515.88672 C 503.8862 515.40947 504.47766 514.92553 505.06055 514.43164 C 505.27729 514.24815 505.49034 514.06076 505.70508 513.875 C 507.86073 512.00868 509.91958 510.03396 511.86328 507.94922 C 511.87019 507.94182 511.87786 507.93514 511.88477 507.92773 C 511.88665 507.92572 511.88874 507.92389 511.89062 507.92188 C 512.52498 507.24084 513.14345 506.54677 513.75391 505.84375 C 513.85718 505.72492 513.95993 505.60577 514.0625 505.48633 C 514.67418 504.77344 515.27668 504.0509 515.86328 503.31641 C 515.8676 503.31101 515.87264 503.30618 515.87695 503.30078 C 515.88767 503.28736 515.8975 503.2732 515.9082 503.25977 C 518.43219 500.09357 520.72179 496.73183 522.74805 493.19727 C 522.75399 493.1869 522.75968 493.17639 522.76562 493.16602 C 522.77084 493.15692 522.77604 493.14777 522.78125 493.13867 C 525.32342 488.69548 527.452 483.98173 529.11523 479.05078 C 526.1587 479.35732 525.43244 480.57395 524.60938 484.73438 C 523.97646 487.93363 521.76158 493.15872 519.6875 496.3457 C 517.61345 499.53269 514.50777 502.14398 512.78516 502.16211 C 510.55102 502.178 509.33228 500.25996 508.53711 495.47266 C 507.92356 491.78135 507.9222 485.94327 508.5332 482.49805 L 509.64453 476.23438 L 502.04102 473.81055 L 494.43945 471.38867 L 493.71484 473.81055 C 493.31675 475.14313 489.89479 479.25401 486.10938 482.94531 C 482.32396 486.63662 478.21872 489.39234 476.98828 489.07031 C 475.75786 488.74797 474.55077 485.52726 474.30469 481.91211 C 474.0586 478.29675 475.12036 472.72257 476.66406 469.52344 L 479.4707 463.70508 L 475.32227 459.63281 C 473.04028 457.39275 469.96483 455.55754 468.48828 455.54688 C 467.01175 455.54006 464.19331 457.21957 462.22461 459.27734 C 460.25591 461.33509 455.62331 463.97889 451.93164 465.15234 C 447.46555 466.57195 444.65166 466.68696 443.51953 465.49609 C 442.43477 464.35512 443.01366 461.11116 445.11914 456.54688 C 446.93547 452.60951 450.3197 447.42355 452.63867 445.02148 L 456.85547 440.65234 L 452.38086 435.69336 L 447.90625 430.73242 L 440.74805 433.26953 C 436.81065 434.6651 431.37296 435.84352 428.66602 435.88672 C 425.02438 435.94487 423.47705 434.917 422.7168 431.9375 C 421.97368 429.02521 423.08868 426.53822 426.74414 422.95117 C 429.52406 420.22335 432.8047 418.0086 434.03516 418.0293 C 435.26559 418.05021 437.4805 416.85932 438.95703 415.38281 C 440.43356 413.90622 441.63049 411.28894 441.61523 409.56641 C 441.60015 407.84375 440.82764 405.22654 439.89844 403.75 C 438.72827 401.89058 435.8481 401.22313 430.5293 401.58008 C 426.30573 401.86353 420.60344 401.05884 417.85742 399.79102 C 415.10574 398.52061 412.89629 396.07969 412.93555 394.35352 C 412.9746 392.6309 415.42195 390.01363 418.375 388.53711 C 421.32807 387.06058 425.55669 385.82628 427.77148 385.79492 C 429.98626 385.76363 433.17704 384.75772 434.86133 383.55859 C 436.64189 382.29089 437.95165 378.94459 437.99219 375.5625 C 438.04786 370.91799 437.25058 369.59427 434.03516 368.99609 C 431.82035 368.58405 427.05073 367.17386 423.43555 365.86328 C 419.82039 364.55269 415.79289 362.4175 414.48633 361.11719 C 412.51351 359.15382 412.87026 358.15475 416.58594 355.22461 C 419.29841 353.0856 423.70281 351.7254 427.77148 351.77148 C 431.46279 351.81327 434.6836 352.73099 434.92969 353.81055 C 435.19334 354.96714 436.96881 354.41629 439.25 352.46875 C 441.37925 350.65093 443.59416 347.35151 444.17188 345.13672 C 444.99461 341.98262 443.96022 340.26631 439.4043 337.2207 C 436.20514 335.0821 431.88321 331.25582 429.79883 328.71875 C 426.99255 325.30302 426.52681 323.57172 428.00781 322.04688 C 429.10786 320.91424 432.8282 320.00523 436.27344 320.02539 C 439.71867 320.0456 445.15436 321.17275 448.35352 322.53125 C 453.76845 324.83066 454.50993 324.70333 459.0918 320.66797 L 464.01367 316.33203 L 459.0918 310.82422 C 456.38482 307.79438 454.08066 304.71094 453.9707 303.97266 C 453.86069 303.23439 453.45833 300.01165 453.07617 296.8125 C 452.69402 293.61336 453.18558 290.59373 454.16992 290.10156 C 455.15428 289.60937 458.5782 290.41081 461.77734 291.88086 C 464.97649 293.35089 469.6075 296.51217 472.06836 298.90625 L 476.54102 303.25781 L 481.01562 300.33203 C 483.47652 298.72296 486.49809 296.36839 487.72852 295.09766 C 489.24957 293.5268 489.3366 292.64407 488.00195 292.33984 C 486.92228 292.09379 485.71329 287.2616 485.31641 281.60156 C 484.76347 273.71549 485.22267 270.99542 487.28125 269.9668 C 488.96982 269.12306 491.32486 269.95507 493.61914 272.20508 C 495.62658 274.17377 498.44406 278.40243 499.88086 281.60156 C 501.81865 285.91619 503.64785 287.41797 506.9668 287.41797 C 509.42767 287.41797 513.25396 286.57515 515.46875 285.54492 C 518.80322 283.99387 519.49845 282.22423 519.51562 275.25391 C 519.52711 270.6241 520.13258 265.42572 520.85938 263.70312 C 521.58618 261.98049 523.38872 260.57227 524.86523 260.57227 C 526.34176 260.57227 529.26534 264.39661 531.36133 269.07227 C 532.03476 270.57454 532.67848 271.99118 533.33398 273.4375 L 533.33398 80 C 533.33398 35.680002 497.65398 0 453.33398 0 L 80 0 z M 529.11523 479.05078 C 529.46625 478.01013 529.79839 476.96195 530.10742 475.90234 C 529.79689 476.96078 529.46616 478.01039 529.11523 479.05078 z M 202.875 75.15625 C 192.25407 75.190758 182.08585 75.632396 177.65625 76.326172 C 171.75016 77.251207 160.87872 79.566789 153.49609 81.470703 C 146.11344 83.374586 136.04481 86.514861 131.12305 88.449219 L 122.17578 91.966797 L 129.33398 93.308594 C 133.27138 94.04694 139.51376 95.741323 143.20508 97.074219 L 149.91602 99.498047 L 150.81055 94.128906 C 151.55253 89.6768 152.39351 88.902958 155.73242 89.597656 C 157.94722 90.058456 163.58919 91.466734 168.26953 92.728516 C 175.80735 94.760697 176.777 95.585675 176.76953 99.945312 C 176.76487 102.6523 176.96287 104.85311 177.20898 104.83594 C 177.45508 104.81922 188.93196 107.73566 202.71289 111.31641 C 216.49382 114.89715 229.58207 118.13247 231.79688 118.50586 C 234.40432 118.94544 235.82227 120.44595 235.82227 122.76367 C 235.82227 124.73238 234.61518 129.1622 233.13867 132.60742 C 231.66214 136.05266 229.44724 138.86382 228.2168 138.85742 C 226.98635 138.84978 220.74401 137.61279 214.3457 136.10742 C 207.94741 134.60207 198.28306 132.10623 192.86914 130.56055 C 187.4552 129.01488 178.59556 126.55341 173.18164 125.0918 C 167.7677 123.6302 160.9218 121.7138 157.96875 120.83203 C 155.01568 119.95025 150.18354 119.22702 147.23047 119.22656 C 144.27742 119.22608 138.2382 118.11811 133.80859 116.76367 C 129.37902 115.40925 121.7284 113.28732 116.80664 112.04883 C 111.88488 110.81034 104.63664 109.16242 100.69922 108.38672 C 94.049447 107.07663 92.71218 107.56602 81.90625 115.26172 C 75.507968 119.8184 65.036944 128.81958 58.638672 135.26562 C 52.240391 141.71168 42.137442 154.22204 36.185547 163.06445 C 30.233684 171.90684 22.687748 185.58415 19.417969 193.45898 C 16.14818 201.33378 11.933188 213.81656 10.050781 221.19922 C 8.1683645 228.58183 6.1436421 243.07836 5.5507812 253.41406 C 4.9056431 264.66174 5.3508411 278.67356 6.6601562 288.31445 C 7.8633019 297.1736 10.472483 309.65638 12.458984 316.05469 C 14.445475 322.45297 19.004326 333.95914 22.589844 341.62305 L 29.109375 355.55664 L 41.189453 355.49414 C 47.833827 355.45896 56.291115 354.2019 59.982422 352.70117 C 63.673743 351.20048 68.505919 349.99141 70.720703 350.01562 C 72.935498 350.03981 75.205038 349.0527 75.765625 347.82227 C 76.326233 346.59183 74.243246 339.54477 71.134766 332.16211 C 68.026296 324.77947 64.677193 313.90808 63.693359 308.00195 C 62.709528 302.09585 61.370558 294.10561 60.71875 290.24609 L 59.535156 283.22852 L 48.796875 280.26562 C 39.817985 277.78855 37.956905 276.59211 37.443359 272.96484 C 37.105556 270.57891 37.704144 265.8085 38.773438 262.36328 L 40.716797 256.09961 L 49.230469 258.14258 C 53.912905 259.26689 59.757869 261.00339 62.21875 262 C 64.679617 262.99662 71.52555 264.76575 77.431641 265.93164 C 83.337752 267.09756 91.189533 269.18734 94.880859 270.57617 L 101.59375 273.10156 L 104.27734 266.83789 C 105.75388 263.39266 106.97498 258.3593 106.99023 255.65234 C 107.00532 252.94538 107.60886 249.7864 108.33203 248.63281 C 109.31535 247.06431 112.57977 247.33366 121.2793 249.70117 C 131.14175 252.38517 132.99792 253.52188 133.46484 257.16797 C 133.76777 259.53338 132.75992 264.8907 131.22656 269.07422 L 128.43945 276.68164 L 136.04492 279.10156 C 140.22842 280.43298 147.27549 282.49102 151.70508 283.67578 C 156.13466 284.86053 162.5782 286.51323 166.02344 287.34766 C 169.46866 288.18208 176.52768 289.94836 181.70898 291.27344 C 188.82498 293.09331 190.87309 294.34127 190.08398 296.36914 C 189.50942 297.84566 188.49159 301.36244 187.82227 304.18555 C 187.15294 307.00866 185.80074 309.93661 184.81641 310.69141 C 183.83203 311.44607 178.59556 311.42681 173.18164 310.64844 C 167.7677 309.87008 162.13082 308.72936 160.6543 308.11523 C 158.74124 307.31957 156.96072 309.20177 154.46094 314.66016 C 152.53154 318.87304 145.62291 328.35954 139.10742 335.74219 C 132.50592 343.22232 125.14428 349.75981 122.48047 350.50781 C 119.85138 351.24607 117.24788 353.25981 116.69336 354.98242 C 116.00063 357.13438 117.82056 359.92639 122.50977 363.90625 C 126.26344 367.09207 131.75009 371.93451 134.70312 374.66797 C 137.65621 377.40142 143.69736 381.39324 148.12695 383.53711 C 152.55653 385.68096 158.59577 387.99189 161.54883 388.67383 C 166.26177 389.76217 166.54348 390.15905 163.85547 391.91211 C 162.17119 393.01054 160.76301 394.91606 160.72461 396.14648 C 160.68626 397.37693 159.84957 398.38281 158.86523 398.38281 C 157.88086 398.38281 157.11046 399.38871 157.1543 400.61914 C 157.19814 401.84959 155.87376 404.06449 154.21094 405.54102 C 152.54815 407.01752 148.88874 408.02532 146.07812 407.7793 C 143.26753 407.53316 136.73816 404.61898 131.57031 401.30469 C 126.40247 397.99038 120.16207 393.53599 117.70117 391.40625 C 115.24029 389.27652 112.82422 387.58714 112.33203 387.65039 C 111.83986 387.71368 109.22262 385.72453 106.51562 383.23047 C 103.80865 380.73642 101.59375 377.8906 101.59375 376.90625 C 101.59375 375.92189 100.38473 375.11719 98.908203 375.11719 C 97.431691 375.11719 95.863679 373.30465 95.423828 371.08984 C 94.693695 367.41327 94.032875 367.19697 87.818359 368.60547 C 84.074701 369.45395 78.595634 371.2062 75.642578 372.5 C 72.689522 373.79382 64.688606 375.91777 57.863281 377.2207 L 45.453125 379.58984 L 57.863281 392.20312 C 64.688606 399.14001 76.312657 409.0809 83.695312 414.29297 C 91.077937 419.50512 103.56268 427.01434 111.4375 430.98242 C 119.31232 434.95038 132.59981 440.40428 140.9668 443.10156 C 149.3338 445.79883 161.81851 449.12334 168.70898 450.48828 C 176.22747 451.97757 192.32846 452.9489 208.97656 452.91797 C 224.70498 452.88888 241.36862 451.86559 247.45703 450.55469 C 253.36313 449.28298 265.04121 446.138 273.4082 443.56641 L 288.61914 438.89062 L 281.46094 437.70508 C 277.52353 437.05266 269.06625 435.5495 262.66797 434.36523 C 256.26965 433.18085 246.60533 431.3757 241.19141 430.35352 C 235.77747 429.33134 222.35993 427.15618 211.37305 425.51953 C 200.38616 423.883 191.06404 422.14061 190.6582 421.64844 C 190.25245 421.15628 190.18127 416.92966 190.5 412.25391 C 190.99568 404.9832 191.53208 403.93318 194.21094 405.00586 C 195.93356 405.6956 201.35373 406.29934 206.25586 406.34766 C 213.40806 406.4184 215.26471 405.81799 215.65234 403.30469 C 216.01897 400.9278 214.51713 399.93301 209.42383 399.18164 C 205.73251 398.6371 198.48425 397.02768 193.31641 395.60352 C 188.14856 394.17937 183.91992 392.6113 183.91992 392.11914 C 183.91992 391.62696 184.8886 389.00972 186.07227 386.30273 C 187.25592 383.59578 188.26372 381.15604 188.31055 380.88281 C 188.35733 380.60953 191.61727 381.55234 195.55469 382.97656 C 199.4921 384.40082 208.34977 386.47341 215.24023 387.58203 C 222.1307 388.6906 230.58794 390.30074 234.0332 391.16211 C 237.4784 392.02347 245.53137 394.04845 251.92969 395.66016 C 258.32796 397.27189 267.99426 399.8464 273.4082 401.38281 C 278.82214 402.91921 285.66608 404.8994 288.61914 405.7832 C 291.5722 406.66699 296.40631 407.31446 299.35938 407.2207 L 304.72852 407.04883 L 300.25391 405.61133 C 297.79303 404.82096 290.74595 402.87203 284.59375 401.2793 C 278.44156 399.68659 268.77724 397.23629 263.11719 395.83398 C 257.45719 394.43171 249.60342 392.46748 245.66602 391.4707 C 241.7286 390.47391 233.27328 388.76396 226.875 387.66992 C 220.4767 386.57588 212.62296 384.915 209.42383 383.97852 C 205.73651 382.89917 203.60228 381.12807 203.59375 379.14258 C 203.58612 377.41999 204.79515 374.19917 206.2793 371.98438 C 208.84029 368.16257 208.74836 367.95703 204.50195 367.95703 C 202.04107 367.95703 198.82025 367.55466 197.34375 367.0625 C 195.48771 366.4438 194.66016 363.68133 194.66016 358.11328 L 194.66016 350.06055 L 204.05469 353.36133 C 209.22253 355.17656 215.66607 357.18836 218.37305 357.83398 C 221.24366 358.51867 223.29492 358.26262 223.29492 357.21875 C 223.29492 356.23439 220.47648 355.02731 217.03125 354.53516 C 213.58602 354.04299 211.16992 352.83394 211.66211 351.84961 C 212.17946 350.81487 209.72592 350.06196 205.8457 350.06836 L 199.13281 350.07422 L 197.34375 341.98047 L 195.55469 333.88672 L 202.30664 331.68164 C 206.0209 330.46869 209.04236 328.87108 209.01953 328.13281 C 208.9966 327.39455 206.56048 326.79102 203.60742 326.79102 C 200.65436 326.79102 198.22616 326.58984 198.20898 326.34375 C 198.19268 326.09768 198.9974 323.2792 199.99805 320.08008 C 201.6826 314.69448 202.24917 314.35077 207.63477 315.43555 C 210.83391 316.07992 216.67195 317.70613 220.60938 319.05078 C 224.54678 320.39545 228.57423 321.45163 229.55859 321.39648 C 230.54295 321.34127 229.33587 320.16444 226.875 318.7832 C 224.4141 317.40198 219.38077 315.82016 215.68945 315.26758 C 211.99815 314.715 208.96444 313.66014 208.94727 312.92188 C 208.93057 312.18359 209.93645 310.21465 211.18359 308.54688 C 213.06631 306.02918 214.81895 305.77853 221.50586 307.07617 C 225.93543 307.93576 230.96878 309.10001 232.69141 309.66211 C 234.97096 310.40595 235.82227 309.7087 235.82227 307.10352 C 235.82227 304.22452 236.43598 303.86557 238.95508 305.26562 C 240.67772 306.22304 242.71292 306.4242 243.47852 305.71289 C 244.24414 305.00158 244.84957 303.81641 244.82227 303.07812 C 244.79493 302.33986 242.15425 300.67513 238.95508 299.37891 C 235.75594 298.08266 227.32053 295.86777 220.20898 294.45703 C 208.84149 292.20201 207.36761 291.45941 208.01562 288.3125 C 208.42102 286.3438 209.20585 282.51752 209.75977 279.81055 C 210.66963 275.36431 211.32933 274.98996 216.58398 275.9375 C 219.78312 276.51437 226.02354 278.09402 230.45312 279.44727 C 234.88272 280.80055 241.12507 282.74469 244.32422 283.76758 C 249.74227 285.49997 250.2016 285.322 251.03516 281.1543 L 251.92969 276.67969 L 257.29883 279.36328 C 260.25188 280.83979 264.27934 282.04883 266.24805 282.04883 C 268.21673 282.04883 271.03519 282.45117 272.51172 282.94336 C 274.28165 283.5333 274.85753 285.21043 274.20117 287.86523 C 273.28705 291.56246 273.98373 291.98849 282.70312 293.08398 C 287.9264 293.74025 294.01179 294.74807 296.22656 295.32227 C 298.8084 295.99161 300.261 295.56326 300.26953 294.12891 C 300.28097 292.50182 302.59803 292.18761 308.76953 292.97852 C 313.43655 293.57661 318.66607 294.58447 320.38867 295.2168 C 322.11129 295.84913 323.51953 297.97661 323.51953 299.94531 C 323.51953 301.91402 324.12306 303.54748 324.86133 303.57617 C 325.59959 303.60483 331.84195 305.19212 338.73242 307.10352 C 345.62287 309.01489 353.47469 310.60217 356.18164 310.63086 C 360.63079 310.67797 360.9931 311.15634 359.94727 315.60547 C 359.31097 318.31243 358.10196 322.33991 357.26172 324.55469 C 355.83745 328.30911 355.19047 328.45963 347.68164 326.79102 C 343.25207 325.80664 338.21871 324.29046 336.49609 323.42188 C 334.77348 322.55329 329.73818 321.02904 325.30859 320.0332 C 318.01743 318.39402 317.17143 318.55126 316.36133 321.69336 C 315.7639 324.01058 314.57352 324.75216 312.78125 323.92773 C 311.30472 323.24853 306.87492 322.20706 302.9375 321.61133 C 296.97906 320.7098 295.69343 319.77676 295.27344 316.05273 C 294.81894 312.02287 293.75237 311.46182 284.53516 310.40234 C 278.90659 309.75535 272.89256 308.74947 271.16992 308.16602 C 269.10758 307.46748 268.03906 308.02133 268.03906 309.78906 C 268.03906 311.93235 266.70891 312.20251 261.44727 311.13086 C 256.00908 310.02328 255.01997 310.25747 255.78516 312.47266 C 256.30502 313.97763 260.18247 315.76799 264.61133 316.54688 C 268.95651 317.31105 273.51957 318.72122 274.75 319.67969 C 276.39933 320.9644 276.5167 322.83267 275.19727 326.79102 C 274.20946 329.75442 274.10916 332.36048 274.97461 332.60742 C 275.83707 332.85352 276.16434 335.47076 275.70117 338.42383 C 274.98441 342.99373 274.15077 343.722 270.10547 343.30859 L 265.35352 342.82227 L 269.38086 344.65039 C 271.59565 345.65577 273.93029 347.88875 274.57031 349.61133 C 275.32416 351.64017 274.53696 353.5416 272.33398 355.00977 C 270.424 356.28252 266.38389 356.8706 263.11719 356.35156 C 257.99807 355.53818 257.30476 355.90914 257.33398 359.45312 C 257.36493 363.19759 256.83038 363.39334 249.72656 362.23633 L 242.08789 360.99219 L 247.45703 363.49805 C 250.41008 364.87627 257.45719 366.03961 263.11719 366.08398 C 268.77724 366.12838 274.62614 365.56249 276.11523 364.82422 C 278.46727 363.65814 278.48514 363.12903 276.25781 360.79688 C 274.02498 358.45891 274.16845 357.53327 277.36133 353.63672 C 279.66846 350.82111 282.867 349.16406 285.99023 349.16406 C 288.71998 349.16406 291.63586 348.53708 292.4707 347.77148 C 293.30556 347.00588 291.97649 346.39096 289.51562 346.4043 C 287.05474 346.41822 283.21143 345.83616 280.97461 345.11133 C 277.95831 344.13402 277.1786 342.86932 277.96094 340.21484 C 278.54116 338.24614 279.76719 334.41986 280.68555 331.71289 C 282.17292 327.32862 282.84434 326.98774 286.83008 328.58203 C 289.29095 329.56638 292.91607 330.37109 294.88477 330.37109 C 296.9728 330.37109 298.83735 328.87905 299.35938 326.79102 C 300.06855 323.95433 301.27539 323.41972 305.17578 324.21484 C 307.88275 324.76667 312.31257 325.57332 315.01953 326.00586 C 317.72652 326.43836 319.93945 327.19338 319.93945 327.68555 C 319.93945 328.17773 319.13474 330.19146 318.15039 332.16016 C 316.52983 335.40129 317.07937 335.83774 323.9668 336.76562 C 328.1503 337.32923 332.98248 338.53629 334.70508 339.44922 C 336.42771 340.36215 337.83062 342.51958 337.82422 344.24219 C 337.81656 345.96481 336.53415 352.20521 334.97461 358.11133 C 333.41506 364.01743 332.51106 370.05862 332.96484 371.53516 C 333.55175 373.44488 334.50139 372.77797 336.25977 369.22461 C 338.48028 364.73732 338.90228 364.55407 340.4043 367.43359 C 341.3239 369.19655 342.68725 373.86141 343.43359 377.79883 L 344.79102 384.95703 L 337.28711 391.72852 C 331.66665 396.7997 328.49339 398.37121 324.64062 397.99219 C 320.39823 397.57481 319.22302 398.34865 317.92969 402.4082 C 316.65709 406.40254 315.26551 407.3531 310.54492 407.45508 L 304.72852 407.58203 L 310.99219 409.90039 C 314.43742 411.17531 320.67784 412.72916 324.86133 413.35352 C 332.0615 414.42818 333.11327 413.97339 344.54883 404.86133 C 351.1932 399.56698 361.13181 389.70145 366.63477 382.9375 C 372.1377 376.17353 379.34495 366.61314 382.65039 361.69141 C 385.95582 356.76963 391.25861 347.1053 394.43359 340.21484 C 397.60855 333.32437 402.45101 320.43729 405.19531 311.57812 C 409.8362 296.5963 410.1749 293.40807 410.05469 265.94141 C 409.96335 245.06597 409.06653 232.87002 406.99219 224.33008 C 405.3783 217.68571 401.48256 205.60528 398.33398 197.48438 C 395.18544 189.36346 391.15795 181.30852 389.38477 179.58594 C 387.5605 177.81372 383.44092 176.45312 379.89648 176.45312 C 376.45126 176.45312 371.4179 175.59026 368.71094 174.53516 C 366.00398 173.48007 360.16394 171.8768 355.73438 170.9707 C 351.30478 170.06461 342.04279 167.67964 335.15234 165.67188 C 328.26186 163.6641 314.57204 160.43493 304.72852 158.49609 C 294.88499 156.55728 282.80261 153.83461 277.88086 152.44531 C 272.95909 151.056 264.10143 148.61294 258.19531 147.01562 C 252.28921 145.41832 247.25586 143.73625 247.00977 143.2793 C 246.76367 142.82233 247.76955 140.03316 249.24609 137.08008 C 250.7226 134.12702 251.92969 129.69722 251.92969 127.23633 C 251.92969 123.77335 252.63833 122.99632 255.0625 123.79883 C 256.78512 124.36907 268.66434 127.51839 281.46094 130.79688 C 294.25749 134.07539 307.14459 137.03247 310.09766 137.36719 C 314.82592 137.90318 315.52006 137.38697 315.91406 133.05273 L 316.36133 128.13086 L 323.9668 130.76367 C 328.1503 132.21162 333.78912 133.82299 336.49609 134.34375 C 340.48091 135.11033 341.33103 136.1496 340.96875 139.80273 C 340.61737 143.34649 341.48194 144.51256 344.99609 145.23633 C 347.45697 145.74315 353.09582 147.39199 357.52539 148.90039 C 361.95497 150.40879 367.10584 151.38563 368.97266 151.07227 C 371.6843 150.61705 369.70465 147.78486 359.12891 136.98242 C 351.84817 129.54563 339.8514 119.20243 332.46875 113.99805 C 325.08612 108.79365 312.80452 101.38772 305.17578 97.541016 C 297.54707 93.694274 285.46664 88.573105 278.33008 86.160156 C 271.19353 83.747196 259.31231 80.446769 251.92969 78.826172 C 244.30791 77.153041 227.67844 75.612791 213.45117 75.261719 L 213.45117 75.263672 C 210.00594 75.178659 206.41531 75.144747 202.875 75.15625 z M 109.64648 113.81445 C 110.13869 113.81445 113.56259 115.04225 117.25391 116.54297 C 120.94522 118.04366 126.98447 119.25078 130.67578 119.22656 C 134.36709 119.20236 137.79103 119.9883 138.2832 120.97266 C 138.7754 121.95701 141.79502 123.04494 144.99414 123.39062 C 148.19329 123.7363 154.838 125.04723 159.75977 126.30273 C 164.68153 127.55822 171.52743 129.61044 174.97266 130.86523 C 178.41788 132.12002 185.7945 134.23305 191.36523 135.56055 C 200.3716 137.70681 201.33953 138.37183 200.10938 141.55469 C 199.34847 143.52339 198.17145 149.16028 197.49219 154.08203 C 196.81293 159.00381 195.49395 165.64851 194.5625 168.84766 C 193.28327 173.24138 192.10414 174.42024 189.73828 173.66602 C 188.01566 173.11686 183.38467 171.90562 179.44727 170.97461 C 175.50984 170.04361 166.65023 167.65881 159.75977 165.67578 C 152.8693 163.69276 140.38654 160.84507 132.01953 159.3457 C 123.65254 157.84634 112.98038 155.44355 108.30469 154.00781 L 99.802734 151.39844 L 100.86328 145.58203 C 101.44567 142.38288 102.98425 136.14053 104.2832 131.71094 C 105.58216 127.28136 107.11968 121.44133 107.69922 118.73438 C 108.27875 116.02739 109.15434 113.81445 109.64648 113.81445 z M 129.78125 137.08203 C 129.04299 137.08088 128.43945 137.8848 128.43945 138.86914 C 128.43945 139.85349 129.84771 140.67026 131.57031 140.68359 C 133.29292 140.69656 139.13293 142.00807 144.54688 143.59961 C 149.96082 145.19117 157.41026 147.59683 161.10156 148.94531 C 164.79288 150.2938 169.42387 151.39844 171.39258 151.39844 C 173.36128 151.39844 174.77149 150.49111 174.52539 149.38281 C 174.27932 148.2745 170.05066 146.22988 165.12891 144.83984 C 160.20714 143.4498 150.54284 141.13711 143.65234 139.69922 C 136.7619 138.2613 130.51952 137.08307 129.78125 137.08203 z M 82.898438 150.2832 C 83.71708 150.31304 84.709468 150.45256 85.933594 150.67773 C 89.13274 151.2662 94.970795 152.85623 98.908203 154.21094 C 102.84562 155.5656 112.50995 157.84623 120.38477 159.2793 C 128.25958 160.71236 141.14667 163.62958 149.02148 165.76172 C 156.89631 167.89387 167.7677 170.87676 173.18164 172.39062 C 178.59555 173.90449 186.65049 175.76444 191.08008 176.52344 C 195.50967 177.28242 202.16757 178.58413 205.87695 179.41602 C 209.58636 180.24789 212.59922 180.92773 212.57031 180.92773 C 212.54157 180.92773 211.27019 184.95519 209.74609 189.87695 C 208.22202 194.79871 204.59385 208.08815 201.68164 219.4082 C 198.76946 230.72823 195.19159 241.80082 193.73242 244.01562 C 192.27325 246.23043 188.86518 248.54834 186.1582 249.16602 C 183.24588 249.83055 177.01659 248.91798 170.90234 246.92969 C 161.9004 244.00232 160.58503 242.9937 160.68359 239.0957 C 160.76645 235.81538 159.46315 234.08699 155.80273 232.62305 C 153.05671 231.52481 147.1874 229.6679 142.75781 228.49609 C 138.32823 227.32428 131.48233 225.67827 127.54492 224.83789 C 123.49331 223.97311 119.99671 223.99032 119.49023 224.87695 C 118.99806 225.73857 114.56827 226.00436 109.64648 225.46875 C 104.72475 224.93312 99.490205 223.78829 98.013672 222.92383 C 95.697768 221.56793 95.660843 220.54136 97.742188 215.45703 C 99.069131 212.21547 100.85737 206.74601 101.7168 203.30078 C 102.57624 199.85555 104.30955 193.2077 105.56836 188.52734 C 107.01731 183.1401 108.8415 180.02835 110.54102 180.04883 C 112.01755 180.06649 117.25404 181.2929 122.17578 182.77344 C 127.09757 184.25397 138.37131 187.5563 147.23047 190.11328 C 156.08963 192.67022 165.15043 195.07208 167.36523 195.45117 C 169.7245 195.855 171.40814 197.43847 171.42969 199.27344 C 171.45003 200.99606 170.23404 206.02942 168.72656 210.45898 C 166.55168 216.84966 166.45166 218.78479 168.24219 219.82812 C 169.48326 220.55135 171.9063 221.15467 173.62891 221.16992 C 175.78389 221.1888 176.76172 219.80122 176.76172 216.72266 C 176.76172 214.26177 177.98951 209.22842 179.49023 205.53711 C 180.99094 201.8458 182.20861 198.42383 182.19336 197.93164 C 182.17894 197.43946 178.33388 196.13337 173.64844 195.0293 C 168.963 193.92522 157.47829 190.81243 148.12695 188.11328 C 138.77561 185.41411 125.88853 181.67075 119.49023 179.79297 C 113.09193 177.91519 105.24016 176.395 102.04102 176.41602 L 96.224609 176.45312 L 95.585938 184.06055 C 95.234705 188.24405 94.077395 194.08213 93.015625 197.03516 C 91.953844 199.98822 89.624024 207.43955 87.837891 213.5918 C 85.707651 220.92933 83.667253 224.76721 81.90625 224.75195 C 80.429717 224.73845 74.991801 223.33029 69.822266 221.62109 C 62.787689 219.29531 60.704156 217.83733 61.541016 215.82812 C 62.155992 214.35159 63.365278 209.72062 64.228516 205.53711 C 65.091753 201.35361 66.603539 196.32027 67.587891 194.35156 C 68.572232 192.38286 69.382272 188.95895 69.388672 186.74414 C 69.394741 184.52935 70.476563 180.70503 71.792969 178.24414 C 73.109406 175.78326 74.816443 170.14445 75.585938 165.71484 C 76.355441 161.28527 77.689704 155.84956 78.550781 153.63477 C 79.539205 151.09233 80.442509 150.19369 82.898438 150.2832 z M 274.30273 155.63086 L 290.41016 158.65625 C 299.26932 160.3194 312.55681 163.34759 319.93945 165.38672 C 327.32209 167.42585 338.5978 170.7407 344.99609 172.75195 C 351.39438 174.76324 358.84383 176.41831 361.55078 176.43164 C 366.11748 176.45307 366.39995 176.87447 365.44922 182.27148 C 364.88566 185.47062 363.34668 191.30871 362.0293 195.24609 C 360.71195 199.18352 359.16001 205.42587 358.58008 209.11719 C 357.73757 214.47963 356.89506 215.62578 354.39258 214.82031 C 352.66998 214.26588 345.22054 212.15856 337.83789 210.13672 C 330.45526 208.11486 321.99797 205.84337 319.04492 205.08984 C 316.09184 204.33632 307.63655 202.10125 300.25391 200.12305 C 292.87125 198.14484 282.80261 195.94685 277.88086 195.23828 C 272.95909 194.52975 268.1269 193.61514 267.14258 193.20703 C 266.04191 192.75073 267.0765 185.37504 269.82812 174.04883 L 274.30273 155.63086 z M 294.88477 176.45312 L 294.88477 176.45508 C 293.90041 176.45508 293.0768 177.05859 293.05664 177.79688 C 293.03631 178.53514 301.49359 181.75593 311.84961 184.95508 C 322.20565 188.15421 332.89264 190.7462 335.59961 190.71484 L 340.52148 190.6582 L 336.94336 188 C 334.97466 186.53807 331.55074 185.35587 329.33594 185.37305 C 327.12116 185.38978 322.69133 184.31472 319.49219 182.98438 C 316.29304 181.654 309.85146 179.64029 305.17578 178.50977 C 300.5001 177.37926 295.86912 176.45313 294.88477 176.45312 z M 248.79883 190.70117 C 250.52147 190.74022 253.54104 191.57816 255.50977 192.5625 C 257.47847 193.54686 267.344 195.93753 277.43359 197.875 C 287.52321 199.81248 301.81854 203.11161 309.20117 205.20703 C 316.58382 207.30243 326.65246 210.18395 331.57422 211.61133 C 336.49596 213.03871 348.38045 215.57762 357.98438 217.25391 L 375.44531 220.30273 L 375.39453 225.67188 C 375.36602 228.62492 374.1817 234.66414 372.76367 239.09375 C 371.34562 243.52333 368.92203 251.98061 367.37695 257.88672 C 365.8319 263.79282 363.6911 271.44343 362.62109 274.88867 C 361.5511 278.3339 358.96031 283.03175 356.86328 285.32812 C 353.43911 289.07784 352.04733 289.38284 343.20703 288.31641 C 337.7931 287.6633 331.55074 285.98509 329.33594 284.58789 C 327.12116 283.1907 325.10742 280.35753 324.86133 278.29102 C 324.55316 275.70309 322.1867 273.73932 317.25586 271.98242 C 313.31845 270.5795 306.87491 268.67995 302.9375 267.76172 C 299.00009 266.8435 293.3632 265.57055 290.41016 264.93164 C 286.73314 264.13611 284.65547 264.53463 283.82031 266.19727 C 282.7999 268.22863 280.82943 268.18768 271.74414 265.94141 C 262.25114 263.59431 261.01849 262.80521 261.95117 259.67578 C 262.53791 257.70709 264.23475 252.0702 265.7207 247.14844 C 267.20667 242.22666 269.9475 233.56822 271.81055 227.9082 L 274.58594 219.47461 L 274.30273 219.375 L 274.60547 219.41797 L 275.19727 217.61719 L 269.38086 216.61719 C 266.18171 216.06651 263.50772 215.86525 263.43945 216.16992 C 263.37137 216.47457 262.00109 221.55482 260.39453 227.46094 C 258.78798 233.36704 256.02644 244.45847 254.25586 252.10742 L 251.03516 266.01367 L 244.77148 264.93164 C 241.32625 264.33634 235.89053 263.11242 232.69141 262.21094 C 228.21548 260.94971 227.13218 259.84958 227.99023 257.43945 C 228.60353 255.71685 229.85089 250.6835 230.76367 246.25391 C 231.67643 241.82432 232.96379 237.39451 233.62305 236.41016 C 234.2823 235.42579 235.3838 230.59362 236.07227 225.67188 C 236.76076 220.75009 238.30225 213.09952 239.49805 208.66992 C 240.69385 204.24034 242.57168 198.36907 243.66992 195.62305 C 244.81482 192.7604 247.00306 190.66053 248.79883 190.70117 z M 274.60547 219.41797 L 274.58594 219.47461 L 281.46094 221.91211 C 285.39833 223.30705 296.67406 226.60104 306.51758 229.23242 C 316.3611 231.86382 327.03134 234.75583 330.23047 235.66016 C 333.96501 236.71585 336.04263 238.42662 336.0293 240.4375 C 336.01863 242.16011 334.80964 247.39462 333.34375 252.07031 L 330.67969 260.57227 L 334.70508 261.32227 C 336.91987 261.73511 339.54574 261.13158 340.53906 259.98047 C 341.5324 258.82935 343.34496 254.06045 344.56641 249.38477 C 345.78789 244.7091 346.98829 239.90922 347.23438 238.7168 C 347.48711 237.49224 344.56506 235.86519 340.52148 234.97852 C 336.58408 234.11512 327.32209 231.94432 319.93945 230.1543 C 312.55681 228.36428 302.08777 225.60601 296.67383 224.02539 C 291.25989 222.44479 284.01164 220.75227 280.56641 220.26367 L 274.60547 219.41797 z M 0 201.02734 L 0 211.4707 C 0.35039008 211.21461 0.6430543 210.94313 0.86328125 210.65234 C 2.0624065 209.06903 3.0762584 206.56638 3.1152344 205.08984 C 3.1409928 204.11179 1.877257 202.54612 0 201.02734 z M 125.30664 201.58984 C 125.06054 201.5464 124.85937 202.31643 124.85938 203.30078 C 124.85938 204.28513 127.07428 205.9538 129.78125 207.00977 C 132.48823 208.06574 137.06752 209.47594 139.95703 210.14258 C 143.96965 211.06833 145.02688 210.77145 144.43164 208.89062 C 144.00299 207.5362 139.62492 205.35795 134.70312 204.04883 C 129.78138 202.7397 125.55272 201.63347 125.30664 201.58984 z M 293.32227 243.49023 C 291.85197 243.50433 290.71867 243.84586 290.41016 244.46289 C 289.91799 245.44723 290.92389 246.75756 292.64648 247.37305 C 294.36913 247.98853 298.78329 248.99443 302.45508 249.60938 C 306.12688 250.22433 309.1465 250.12304 309.16602 249.38477 C 309.18555 248.6465 307.39058 247.35585 305.17578 246.51562 C 302.961 245.67541 298.93353 244.46639 296.22656 243.83008 C 295.20847 243.59076 294.20444 243.48178 293.32227 243.49023 z M 88.341797 290.89453 C 86.583719 290.8683 85.562268 291.20907 85.552734 291.89258 C 85.538804 292.87692 87.082047 299.72088 88.980469 307.10352 C 90.87889 314.48614 93.486281 323.4627 94.775391 327.05078 C 96.064489 330.63885 97.722675 334.0628 98.460938 334.6582 C 99.199209 335.25362 103.22666 333.66626 107.41016 331.13086 C 111.59365 328.59549 117.02936 323.63867 119.49023 320.11719 C 121.95112 316.59573 125.77666 311.62456 127.99023 309.06836 C 130.20382 306.51212 132.03459 303.61521 132.05859 302.63086 C 132.08271 301.64651 129.06384 299.91103 125.34961 298.77539 C 121.63534 297.63975 114.16589 295.78188 108.75195 294.64648 C 103.33805 293.5111 95.90991 292.02384 92.244141 291.3418 C 90.716877 291.05766 89.396644 290.91027 88.341797 290.89453 z M 533.33398 298.42188 C 527.02596 298.79492 519.68965 299.80593 515.46875 300.95898 C 510.30092 302.37074 501.8436 305.65823 496.67578 308.26562 C 491.50791 310.87303 482.44713 317.6316 476.54102 323.28516 C 470.6349 328.93871 463.63812 337.47807 460.99219 342.25977 C 458.34626 347.04148 454.91947 355.78528 453.37695 361.69141 C 451.83446 367.59751 450.57227 376.8595 450.57227 382.27344 C 450.57227 387.68738 451.83446 396.94936 453.37695 402.85547 C 454.91947 408.76157 458.34626 417.50537 460.99219 422.28711 C 463.63812 427.06888 470.6349 435.60616 476.54102 441.25977 C 482.44713 446.91325 491.50791 453.67388 496.67578 456.28125 C 501.8436 458.88861 510.70325 462.23339 516.36328 463.71484 C 520.45302 464.78529 526.72975 465.70708 532.31641 466.14062 C 532.48275 465.09847 532.62927 464.0494 532.75586 462.99414 C 532.88245 461.93888 532.98861 460.87823 533.07422 459.81055 C 533.15225 458.8374 533.20893 457.85791 533.25195 456.875 C 533.26169 456.64949 533.26946 456.42327 533.27734 456.19727 C 533.31098 455.24681 533.33398 454.29294 533.33398 453.33398 L 533.33398 298.42188 z M 532.31641 466.14062 C 531.96196 468.36123 531.51278 470.54898 530.97656 472.70117 C 531.50854 470.54681 531.962 468.36099 532.31641 466.14062 z M 530.97656 472.70117 C 530.70861 473.77666 530.41775 474.84255 530.10742 475.90039 C 530.41616 474.8417 530.71071 473.77781 530.97656 472.70117 z M 256.4043 326.94531 C 253.44993 326.86413 253.29399 327.15008 255.50977 328.58203 C 256.98628 329.53624 260.20903 330.27077 262.66992 330.2168 C 266.76766 330.12668 266.84262 329.99072 263.56445 328.58203 C 261.59575 327.73606 258.373 326.99929 256.4043 326.94531 z M 0 334.43945 L 0 344.23633 C 1.9192702 342.08819 3.1408125 340.40783 3.1445312 339.76758 C 3.1517697 338.53714 1.9491927 336.3222 0.47265625 334.8457 C 0.32339294 334.69644 0.16008442 334.57103 0 334.43945 z M 233.32617 334.88672 C 231.87941 334.79998 228.31388 337.11874 225.08398 340.29688 C 219.25854 346.02894 219.10272 346.46235 222.84766 346.46875 C 225.44579 346.47462 227.03356 345.28083 227.32227 343.10352 C 227.72541 340.06287 228.65581 339.88463 236.71875 341.30273 C 242.5881 342.33503 246.28318 342.23937 247.45703 341.02344 C 248.65874 339.77869 248.36311 338.61525 246.56055 337.48242 C 245.08401 336.55446 242.0644 335.78283 239.84961 335.76758 C 237.63484 335.75254 234.81637 335.37946 233.58594 334.9375 C 233.50903 334.90988 233.42262 334.8925 233.32617 334.88672 z M 315.01953 351.79883 C 314.28127 351.77147 313.05077 352.37503 312.28516 353.14062 C 311.51953 353.90623 310.9141 355.5391 310.94141 356.76953 C 310.96873 357.99997 309.69301 360.41608 308.10547 362.13867 C 305.44232 365.02845 305.47675 365.44458 308.55273 367.5293 L 311.88672 369.78906 L 313 367.5293 C 313.61204 366.28659 314.61793 362.24992 315.23633 358.55859 C 315.8547 354.86728 315.75781 351.82613 315.01953 351.79883 z M 266.4707 368.84961 L 266.35938 374.66602 C 266.29831 377.86515 266.04687 380.47441 265.80078 380.46289 C 265.55471 380.45121 260.92367 379.25199 255.50977 377.79883 C 250.09584 376.34564 243.65228 375.21132 241.19141 375.27734 C 237.66557 375.37193 238.23561 375.88623 243.87695 377.70508 C 247.81436 378.97452 255.86732 381.36999 261.77344 383.0293 C 267.67954 384.68859 272.91602 385.57537 273.4082 385 C 273.90037 384.42461 272.54043 380.55607 270.38672 376.40234 L 266.4707 368.84961 z M 217.03125 369.9082 C 216.0469 369.96814 218.06061 371.10295 221.50586 372.42969 C 224.95108 373.75643 229.38092 374.84889 231.34961 374.85742 C 233.31831 374.86645 231.30457 373.73362 226.875 372.33789 C 222.4454 370.94216 218.0156 369.84826 217.03125 369.9082 z M 309.64844 376.85742 C 308.91018 376.83211 306.29288 378.86741 303.83203 381.37891 C 301.37116 383.89043 298.75391 385.92361 298.01562 385.89844 C 297.27736 385.87313 296.0703 383.90415 295.33203 381.52344 L 293.99023 377.19531 L 288.61914 381.51562 C 285.66607 383.89142 282.04294 385.88639 280.56641 385.94922 C 279.08987 386.01194 284.32439 387.64309 292.19922 389.57422 C 300.07402 391.50534 308.98252 393.67261 311.99609 394.39062 C 316.80474 395.53636 317.35261 395.28529 316.4707 392.33789 C 315.918 390.49077 314.4227 388.07467 313.14844 386.96875 C 311.87415 385.86282 310.86827 383.14644 310.91211 380.93164 C 310.95592 378.71687 310.38671 376.8827 309.64844 376.85742 z M 244.32422 407.29883 C 242.10945 407.28244 239.27808 408.29025 238.03125 409.53711 C 236.7844 410.78398 235.76031 412.20705 235.75391 412.69922 C 235.74859 413.19139 240.79483 414.64548 246.96875 415.93164 C 253.14267 417.21768 262.80292 419.63373 268.43555 421.30078 C 274.0682 422.96775 279.1106 423.92967 279.64062 423.4375 C 280.17058 422.94535 280.21232 421.33404 279.73242 419.85742 C 279.25252 418.38092 276.82741 416.16603 274.34375 414.93555 C 271.86011 413.70519 268.01558 412.71744 265.80078 412.74219 C 263.58601 412.76642 258.75383 411.55932 255.0625 410.05859 C 251.37119 408.55796 246.53901 407.31643 244.32422 407.29883 z M 308.75391 423.46484 C 308.01564 423.44978 307.81447 424.24224 308.30664 425.22656 C 308.79882 426.2109 310.61137 427.00375 312.33398 426.98828 C 315.01061 426.96488 315.07551 426.70926 312.78125 425.22656 C 311.30473 424.27233 309.49218 423.48042 308.75391 423.46484 z "
       transform="matrix(0.93750004,0,0,0.93750004,0,552.36216)"
       id="rect856" />
  </g>
  <g
     inkscape:groupmode="layer"
     id="layer3"
     inkscape:label="Layer 1"
     style="display:inline"
     transform="translate(0,-100)" />
</svg>
